<svg width="70" height="52" viewBox="0 0 70 52" fill="none" xmlns="http://www.w3.org/2000/svg">
<path d="M51.7191 32.0901V23.7634C51.7191 21.9185 51.1576 20.9336 49.8742 20.9336C48.5835 20.9336 48.0249 21.9185 48.0249 23.7634V32.0901C48.0249 33.9373 48.5835 34.7958 49.8742 34.7958C51.1583 34.7958 51.7191 33.9373 51.7191 32.0901Z" fill="white"/>
<path d="M14.777 31.8443V23.5175C14.777 21.6726 14.2155 20.6877 12.9321 20.6877C11.6413 20.6877 11.0828 21.6726 11.0828 23.5175V31.8443C11.0828 33.6914 11.6413 34.5499 12.9321 34.5499C14.2162 34.5499 14.777 33.6914 14.777 31.8443Z" fill="white"/>
<path d="M60.6946 45.0473C61.4726 44.1482 62.1228 43.4492 62.7456 42.7754C63.9869 41.4396 65.0597 40.2855 67.0147 37.6183C68.9357 35.0028 70.1791 33.0374 69.9789 29.655C69.877 27.9187 69.806 26.724 68.6749 25.3254C67.9922 24.4846 66.7295 23.2625 65.3855 21.974C63.9344 20.5739 62.674 19.2425 60.9657 17.467C59.2516 15.6849 57.041 11.1484 57.041 11.1484C56.2711 9.38997 54.7136 5.42755 54.7136 2.19658L54.6398 0.117477C54.6398 0.0273375 54.6472 0.000738439 54.6516 0.000738439H29.5538V17.7995C31.0315 16.1718 32.832 15.6155 34.5506 15.6155C37.3419 15.6155 39.8976 17.2439 39.8976 20.8487V39.1588H33.248V23.0793C33.248 21.6193 32.5638 20.9344 31.4452 20.9344C30.1944 20.9344 29.5538 21.7471 29.5538 23.0793V39.1588H22.9042V0H0V51.7191H4.43307V16.2546H10.3438V18.9972C11.8215 16.6831 13.8046 15.6147 15.6931 15.6147C19.0445 15.6147 21.4265 18.1859 21.4265 22.8628V33.4179C21.4265 37.3708 18.7888 39.9863 15.7396 39.9863C13.9812 39.9863 12.5604 39.1757 11.0827 37.2836V51.7191H41.3753V16.2546H47.286V18.9972C48.7637 16.6831 50.7483 15.6147 52.6338 15.6147C55.9852 15.6147 58.3687 18.1859 58.3687 22.8628V33.4179C58.3687 37.3708 55.7296 39.9863 52.6796 39.9863C50.9226 39.9863 49.5026 39.1757 48.0249 37.2836V51.7191H54.8607L56.8644 49.5639C57.7599 48.4409 58.8172 47.2144 60.0688 45.7736L60.6953 45.0481L60.6946 45.0473Z" fill="white"/>
</svg>
