<svg width="70" height="78" viewBox="0 0 70 78" fill="none" xmlns="http://www.w3.org/2000/svg">
<g filter="url(#filter0_d_1_192)">
<path d="M4.93945 1.09375L10.4109 62.3946L34.9634 69.1764L59.5838 62.4023L65.0607 1.09375H4.93945ZM53.6802 15.6073L53.3373 19.5295L53.1864 21.3281H24.3852L25.0727 28.9844H52.5017L52.318 30.8826L50.5499 50.6352L50.4198 51.8766L35.0001 56.1143V56.1154L34.9815 56.1252L19.5722 52.0658L18.526 40.4688H26.0811L26.6165 46.4401L34.9766 48.6719H35.0001V48.3733L43.3973 46.2541L44.2745 36.6406H18.1897L16.3396 15.7954L16.1597 13.6719H53.8607L53.6802 15.6073Z" fill="white"/>
</g>
<defs>
<filter id="filter0_d_1_192" x="-4" y="0" width="78" height="78" filterUnits="userSpaceOnUse" color-interpolation-filters="sRGB">
<feFlood flood-opacity="0" result="BackgroundImageFix"/>
<feColorMatrix in="SourceAlpha" type="matrix" values="0 0 0 0 0 0 0 0 0 0 0 0 0 0 0 0 0 0 127 0" result="hardAlpha"/>
<feOffset dy="4"/>
<feGaussianBlur stdDeviation="2"/>
<feComposite in2="hardAlpha" operator="out"/>
<feColorMatrix type="matrix" values="0 0 0 0 0 0 0 0 0 0 0 0 0 0 0 0 0 0 0.25 0"/>
<feBlend mode="normal" in2="BackgroundImageFix" result="effect1_dropShadow_1_192"/>
<feBlend mode="normal" in="SourceGraphic" in2="effect1_dropShadow_1_192" result="shape"/>
</filter>
</defs>
</svg>
