<svg width="70" height="70" viewBox="0 0 70 70" fill="none" xmlns="http://www.w3.org/2000/svg">
<path d="M1.09375 0.546875V68.9062H69.4531V0.546875H1.09375ZM37.2526 58.7962C36.2436 60.8464 34.3175 62.1934 32.0857 62.8436C28.6563 63.6311 25.3761 63.1821 22.9359 61.7176C21.303 60.7157 20.0277 59.1735 19.162 57.3967L24.3682 54.2084C24.4136 54.2276 24.5503 54.4748 24.733 54.7941C25.3969 55.9065 25.9695 56.694 27.0949 57.2469C28.2007 57.6242 30.6283 57.8654 31.5656 55.9196C32.1382 54.9298 31.9561 51.748 31.9561 48.2278C31.9555 42.6962 31.9812 37.1875 31.9812 31.7188H38.3846C38.3846 37.7344 38.4174 43.4317 38.3846 49.3019C38.3983 52.9003 38.7105 56.1083 37.2526 58.7962ZM63.8165 56.9871C61.5907 64.6007 49.181 64.8479 44.222 59.8177C43.1741 58.6337 42.5173 58.0152 41.8923 56.6486C44.5277 55.1327 44.5277 55.1327 47.092 53.649C48.4848 55.79 49.7727 56.9674 52.0898 57.4492C55.2333 57.8331 58.3959 56.753 57.6866 53.4144C56.9576 50.6877 51.2498 50.0243 47.3654 47.1084C43.4219 44.4598 42.4977 38.0242 45.7384 34.347C46.8185 32.987 48.6604 31.972 50.593 31.4841L52.6099 31.2233C56.4823 31.1451 58.9028 32.1677 60.6796 34.1518C61.174 34.6527 61.5776 35.193 62.3323 36.3639C60.2695 37.6786 60.276 37.666 57.3213 39.579C56.6902 38.2195 55.6429 37.3663 54.536 36.9955C52.8177 36.4749 50.651 37.0409 50.2015 38.8566C50.0456 39.416 50.0779 39.9366 50.3256 40.8609C51.0218 42.4484 53.358 43.1386 55.4537 44.1016C61.4863 46.5484 63.5234 49.1717 64.0243 52.2944C64.5066 54.9828 63.9078 56.7268 63.8165 56.9871V56.9871Z" fill="white"/>
</svg>
